<svg xmlns="http://www.w3.org/2000/svg" xmlns:xlink="http://www.w3.org/1999/xlink" viewBox="0 0 2000 2000" id="landing-page-template-of-fingerprint-security"><defs><linearGradient id="a" x1="794.871" x2="1305.828" y1="895.81" y2="1558.056" gradientUnits="userSpaceOnUse"><stop offset="0" stop-color="#fff"></stop><stop offset=".291" stop-color="#adadad"></stop><stop offset=".639" stop-color="#515151"></stop><stop offset=".883" stop-color="#171717"></stop><stop offset="1"></stop></linearGradient><linearGradient id="c" x1="1048.849" x2="683.472" y1="933.679" y2="1507.436" xlink:href="#a"></linearGradient><linearGradient id="d" x1="927.086" x2="1195.963" y1="650.403" y2="1100.479" xlink:href="#a"></linearGradient><linearGradient id="e" x1="903.717" x2="1071.765" y1="517.393" y2="1037.612" xlink:href="#a"></linearGradient><linearGradient id="b" x1="1304.189" x2="1151.006" y1="1585.827" y2="1269.953" gradientTransform="scale(-1 1) rotate(-21.647 44.597 6100.131)" gradientUnits="userSpaceOnUse"><stop offset="0"></stop><stop offset=".099" stop-color="#111"></stop><stop offset=".296" stop-color="#3d3d3d"></stop><stop offset=".571" stop-color="#848484"></stop><stop offset=".911" stop-color="#e5e5e5"></stop><stop offset="1" stop-color="#fff"></stop></linearGradient><linearGradient id="f" x1="1783.572" x2="1693.52" y1="989.005" y2="803.312" gradientTransform="scale(-1 1) rotate(57.194 111.257 -792.97)" xlink:href="#b"></linearGradient><linearGradient id="g" x1="1388.201" x2="1349.458" y1="1651.067" y2="1422.735" gradientTransform="scale(-1 1) rotate(-16.637 57.126 7672.373)" xlink:href="#b"></linearGradient><linearGradient id="h" x1="1080.551" x2="1150.524" y1="398.831" y2="506.123" gradientUnits="userSpaceOnUse"><stop offset="0" stop-color="#fff"></stop><stop offset=".086" stop-color="#f4f4f4"></stop><stop offset=".239" stop-color="#d6d6d6"></stop><stop offset=".44" stop-color="#a6a6a6"></stop><stop offset=".682" stop-color="#636363"></stop><stop offset=".956" stop-color="#0e0e0e"></stop><stop offset="1"></stop></linearGradient></defs><g style="isolation:isolate"><g><g><path fill="#50fbf8" d="M531.185 1475.365q-9.435 0-18.779-.56c-70.865-4.24-134.303-32.834-174.058-78.443-34.727-39.846-50.006-89.826-44.184-144.515 6.537-61.506 38.688-125.223 95.556-189.383 59.463-67.08 58.989-127.786-1.646-209.546-44.685-98.12-24.28-179.106 55.808-222.497 97.677-52.94 263.91-31.65 331.772 75.145 25.087 39.482 61.304 62.488 107.635 68.375 131.714 16.775 317.728-106.25 410.52-193.025 58.514-54.716 124.17-64.85 175.697-27.098 51.632 37.85 70.977 111.584 44.048 167.86-11.083 23.188-28.294 43.71-43.475 61.818-22.31 26.603-41.576 49.577-35.996 72.615 5.269 21.745 32.132 42.116 84.532 64.114 93.195 39.118 191.75 138.245 199.803 252.008 4.124 58.488-15.403 142.798-131.936 212.434-80.017 47.82-195.328 23.247-328.903-5.19-168.009-35.8-358.432-76.336-515.605 28.476-65.689 43.814-139.832 67.412-210.79 67.412ZM390.969 1063.57l1.249 1.106c-106.88 120.579-126.075 243.76-51.36 329.5 74.1 85 239.201 117.744 399.268 11.02 158.357-105.607 349.51-64.889 518.156-28.985 132.846 28.308 247.571 52.751 326.483 5.594 115.09-68.764 134.394-151.787 130.322-209.338-7.948-112.422-105.501-210.444-197.773-249.172-53.453-22.44-80.928-43.534-86.47-66.397-5.97-24.677 13.79-48.25 36.685-75.542 15.051-17.952 32.119-38.304 43.033-61.116 26.252-54.884 7.35-126.803-43.02-163.735-50.097-36.724-114.205-26.714-171.47 26.843-93.247 87.205-280.223 210.79-413.206 193.897-47.359-6.023-84.375-29.536-110.022-69.896-66.918-105.313-230.934-126.251-327.375-74.001-78.352 42.454-98.23 121.873-54.54 217.892 61.598 82.996 62.02 144.918 1.289 213.436Z"></path><path fill="#f2f2f2" d="M626.048 441.526c-82.935 97.857 24.63 174.034 91.29 143.402S789.57 634.82 837.1 618.855s39.57-119.344-18.199-177.117-142.229-59.945-192.853-.212ZM1528.535 1442.178a157.61 157.61 0 0 1-26.642 12.655c-184.63 68.204-531.91-161.851-789.406 9.857a394.723 394.723 0 0 1-53.151 29.973c-69.802 33.036-140.537 41.295-201.548 30.238-163.316-29.172-257.63-195.286-83.656-391.639 18.117-20.514 30.505-40.363 37.166-60.344 15.052-44.492 1.865-89.65-38.632-144.134-95.911-210.739 140.937-285.337 290-211.805 33.303 16.385 62.076 40.097 81.925 71.268 104.037 163.716 372.856-5.462 488.216-106.702 5.329-4.662 10.258-9.192 14.92-13.454 134.809-126.15 261.093 26.775 209.806 134.143-39.563 82.59-156.655 125.884 5.728 193.955 162.25 68.204 304.254 303.187 65.274 445.989Z"></path><path d="M1528.535 1442.178c-175.972 105.103-545.631-157.855-816.048 22.512-86.32 57.547-178.103 74.065-254.699 60.211-140.27-259.627 288.001-539.635 467.569-455.713 173.041 80.859 353.408-172.774 307.45-387.643 5.329-4.662 10.258-9.192 14.92-13.454 134.809-126.15 261.093 26.775 209.806 134.143-39.563 82.59-156.655 125.884 5.728 193.955 162.25 68.204 304.254 303.187 65.274 445.989Z" style="mix-blend-mode:overlay" fill="url(#a)"></path><path d="M1501.893 1454.833c-184.63 68.204-531.91-161.851-789.406 9.857a394.723 394.723 0 0 1-53.151 29.973c-18.25-216.068-109.367-414.152-248.038-421.745 15.052-44.492 1.865-89.65-38.632-144.134-95.911-210.739 140.937-285.337 290-211.805-2.531 308.116 241.11 529.646 446.655 433.334 214.869-100.574 448.12 158.654 392.572 304.52Z" style="mix-blend-mode:overlay" fill="url(#c)"></path><path fill="#a787aa" d="m1306.022 708.842-113.877 357.88c-7.82 24.804-37.633 44.843-66.469 44.843H843.673c-28.347 0-46.92-44.476-39.833-69.524a.922.922 0 0 1 .123-.488 1.82 1.82 0 0 1 .121-.856l57.184-164.34 18.938-54.25 39.343-113.265C927.37 684.038 957.183 664 986.02 664l181.566-15.029 22.85-1.955 94.204-7.82c12.219 0 19.428 8.186 22.849 19.427 4.888 15.152 3.054 36.045-1.466 50.22Z"></path><path fill="#fbcbff" d="m1306.022 675.363-39.344 123.53-54.983 172.891-19.55 61.338c-7.82 24.803-37.633 44.964-66.469 44.964H843.673c-25.293 0-41.421-15.518-39.833-36.045a.922.922 0 0 1 .123-.488 30.436 30.436 0 0 1 1.71-8.431l66.59-209.304 47.286-148.455c7.82-24.804 37.634-44.842 66.47-44.842h282.003c21.994 0 37.144 11.608 39.466 28.102a36.298 36.298 0 0 1-1.466 16.74Z"></path><path fill="#feeeff" d="M1127.981 1061.519H851.882c-27.338 0-43.442-19.049-35.968-42.547L920.69 689.56c7.474-23.498 35.695-42.547 63.034-42.547h276.099c27.339 0 43.442 19.049 35.969 42.547l-104.777 329.413c-7.474 23.498-35.695 42.547-63.034 42.547Z"></path><path d="m1305.478 708.842-113.877 357.88c-7.82 24.804-37.632 44.843-66.469 44.843H843.13c-28.347 0-46.92-44.476-39.832-69.524a.922.922 0 0 1 .122-.488 30.429 30.429 0 0 1 1.71-8.431l66.591-209.304c1.955-.488 4.032-.978 6.11-1.344a4.9 4.9 0 0 1 1.832-.367c37.267-7.453 78.565-.733 118.031 22.605 102.514 60.481 217.49-58.771 169.349-195.741a11.923 11.923 0 0 0-.611-1.955c-2.077-5.498-4.276-10.997-6.842-16.495h107.89c21.993 0 37.144 11.608 39.465 28.102 4.888 15.152 3.055 36.045-1.466 50.22Z" style="mix-blend-mode:overlay" fill="url(#d)"></path><path d="m1266.678 798.893-54.983 172.891c-1.955.123-3.788.123-5.743.123-44.964-.489-93.105-37.511-138.802-73.311-68.913-53.884-207.105-1.589-187.189 105.69 3.788 20.893 2.2 40.199-3.42 57.183a95.374 95.374 0 0 1-6.965 16.617h-25.903c-25.293 0-41.421-15.518-39.833-36.045a.922.922 0 0 1 .123-.488 30.436 30.436 0 0 1 1.71-8.431l66.59-209.304 47.286-148.455c7.82-24.804 37.634-44.842 66.47-44.842h125.24c-2.2 5.498-4.155 10.997-5.743 16.495-29.08 96.893 29.935 180.957 94.082 147.234 23.826-12.464 45.453-10.142 62.437 1.221h.123a29.34 29.34 0 0 1 4.52 3.422Z" style="mix-blend-mode:overlay" fill="url(#e)"></path><path fill="#35a7a5" fill-rule="evenodd" d="M455.99 1317.443c14.848 11.41 77.565 30.506 63.621 56.37-13.945 25.866-34.59 37.614-21.185 75.467 13.036 36.999 58.474 30.141 69.17 86.579.321 1.684.521 3.319.842 5.002 1.074-.564 2.195-1.25 3.389-1.766 55.922-30.42 123.748-45.931 144.328-100.986 18.577-46.8-1.273-75.188-45.595-98.58-12.808-6.215-21.344-12.15-26.803-17.994-23.258-24.79 10.03-47.362 20.125-79.564 12.515-39.728 1.093-57.275-31.44-62.975-32.655-5.748-52.782-1.007-14.707-40.632 38.029-39.503 5.529-69.517-27.75-71.553-24.26 1.969-38.264 14.798-46.617 31.567-15.884 31.461-11.296 76.563-16.026 88.123-7.326 17.742-13.113 26.62-57.178 54.25-43.99 27.8-28.975 65.16-14.175 76.692Z"></path><path fill="#fff" d="M492.088 1268.547a2.569 2.569 0 0 0 3.008 2.043c8.515-1.854 17.072 2.957 27.854 8.934 4.278 2.406 8.679 4.86 13.666 7.263a91.587 91.587 0 0 0 26.313 8.182 87.75 87.75 0 0 0 24.924-.432 238.325 238.325 0 0 1 7.621 28.908c6.83 34.819 8.123 80.736-5.343 139.605-8.79-46.629-56.546-48.187-56.96-48.21a2.425 2.425 0 0 0-2.508 2.399 2.217 2.217 0 0 0 2.399 2.508c2.075.116 52.906 1.764 53.518 57.593a573.966 573.966 0 0 1-18.984 58.519c-.412 1.393-.945 2.737-1.527 4.203a2.471 2.471 0 0 0 1.448 3.12l.49.195a2.533 2.533 0 0 0 2.753-1.595l1.067-2.688c14.062-36.85 22.861-69.709 27.934-99.237l.17-.074c21.008-32.255 47.07-35.913 64.275-38.278 7.468-.996 13.47-1.867 17.052-4.83a2.434 2.434 0 0 0 .235-3.442 2.387 2.387 0 0 0-3.395-.358c-2.533 2.106-7.901 2.804-14.613 3.676-16.618 2.315-41.046 5.773-62.043 32.657 6.21-42.372 4.458-77.154-.962-105.19a241.527 241.527 0 0 0-8.46-32.495l.097-.244c-.073-.171-.196-.22-.27-.39-2.361-6.879-4.843-13.097-7.349-18.9-2.39-17.498 15.799-26.262 31.939-34.14 10.606-4.984 19.724-9.427 22.588-15.928a2.475 2.475 0 0 0-1.107-3.269 2.507 2.507 0 0 0-3.317 1.23c-2.185 4.79-10.962 9.086-20.25 13.603-13.947 6.628-30.599 14.728-34.199 29.14-4.834-9.556-9.395-17.307-12.976-23.254l-2.624-4.436a28.427 28.427 0 0 1-2.086-4.364c-9.163-21.46.248-54.075 6.646-71.62 2.666-7.429 4.85-12.22 4.898-12.341a2.327 2.327 0 0 0-1.107-3.269 2.475 2.475 0 0 0-3.268 1.107c-.146.367-1.092 2.396-2.305 5.45-6.452 15.544-22.179 59.796-7.607 86.514.148.341.417.731.564 1.073l2.624 4.436c6.13 10.212 15.497 25.812 23.294 47.86-21.108 2.936-36.967-2.368-49.97-8.803-3.936-1.845-7.53-3.837-11.002-5.781-11.1-6.245-20.708-11.615-31.151-9.536a2.56 2.56 0 0 0-1.994 2.886Z"></path><path d="M455.99 1317.443c14.848 11.41 77.565 30.506 63.621 56.37-13.945 25.866-34.59 37.614-21.185 75.467 13.036 36.999 58.474 30.141 69.17 86.579-.412 1.393-.945 2.737-1.527 4.203a2.471 2.471 0 0 0 1.448 3.12l.49.195a2.533 2.533 0 0 0 2.753-1.595l1.067-2.687c55.922-30.42 123.748-45.931 144.328-100.986 18.577-46.8-1.273-75.188-45.595-98.58-12.808-6.215-21.344-12.15-26.803-17.994a174.26 174.26 0 0 1-43.277 2.483 33.352 33.352 0 0 1-5.006-.573c-32.795-3.258-55.707-17.16-58.858-36.658a17.641 17.641 0 0 1-.382-5.809c.245-8.813 4.515-18.858 13.472-29.306a67.571 67.571 0 0 0 10.017-15.26 34.609 34.609 0 0 0 2.743-5.841c9.099-21.141 10.812-47.194 6.646-71.62-.497-3.026-.993-6.052-1.782-9.053-4.422-19.86-12.722-38.147-23.962-51.52-15.884 31.461-11.296 76.563-16.026 88.123-7.326 17.742-13.113 26.62-57.178 54.25-43.99 27.8-28.975 65.16-14.175 76.692Z" style="mix-blend-mode:overlay" fill="url(#b)"></path><path fill="#35a7a5" fill-rule="evenodd" d="M410.674 1560.707c8.27-7.267 26.418-41.27 39.75-30.284 13.333 10.985 17.76 24.23 41.118 20.803 22.823-3.31 24.036-30.298 57.805-30.048 1.008.006 1.974.077 2.981.083-.203-.683-.471-1.408-.633-2.155-11.185-35.715-12.416-76.6-41.83-94.733-24.88-16.038-43.512-7.818-62.045 15.086-5.042 6.68-9.436 10.928-13.428 13.412-16.944 10.595-26.176-11.172-43.602-20.658-21.49-11.737-32.91-7.145-39.898 10.97-7.03 18.182-6.585 30.33-25.109 3.862-18.459-26.427-39.467-11.096-44.427 7.867-1.624 14.217 4.183 23.753 12.905 30.478 16.34 12.74 42.875 15.224 49.005 19.268 9.4 6.243 13.862 10.59 24.786 39.149 11.03 28.535 34.287 24.124 42.622 16.9Z"></path><path fill="#fff" d="M386.578 1534.324a1.51 1.51 0 0 0 1.52-1.503c-.1-5.122 3.648-9.51 8.321-15.05 1.875-2.193 3.79-4.452 5.744-7.055a53.84 53.84 0 0 0 7.713-14.247 51.586 51.586 0 0 0 2.585-14.425 140.117 140.117 0 0 1 17.541-1.107c20.86.022 47.49 4.498 79.914 18.962-27.895-.234-34.226 27.133-34.286 27.37a1.426 1.426 0 0 0 1.098 1.719 1.303 1.303 0 0 0 1.72-1.099c.303-1.183 7.035-30.314 39.306-24.317a337.431 337.431 0 0 1 31.593 17.606c.757.396 1.471.856 2.25 1.359a1.453 1.453 0 0 0 1.965-.48l.168-.26a1.49 1.49 0 0 0-.606-1.77l-1.43-.921a311.56 311.56 0 0 0-54.06-27.4l-.023-.107c-16.215-15.785-15.36-31.234-14.767-41.426.274-4.42.455-7.982-.847-10.385a1.43 1.43 0 0 0-1.959-.527 1.403 1.403 0 0 0-.592 1.917c.927 1.701.719 4.877.458 8.847-.555 9.849-1.339 24.332 11.78 39.5-23.734-8.401-43.995-11.347-60.782-11.41a141.97 141.97 0 0 0-19.705 1.183l-.13-.084c-.107.023-.149.089-.256.112a153.65 153.65 0 0 0-11.737 2.089c-10.364-.612-13.35-12.1-16.058-22.305-1.668-6.684-3.194-12.45-6.617-14.84a1.455 1.455 0 0 0-2.012.266 1.474 1.474 0 0 0 .332 2.053c2.515 1.805 3.994 7.356 5.543 13.228 2.236 8.798 5.014 19.324 12.918 23.04-6.062 1.7-11.052 3.45-14.89 4.839l-2.856 1.008a16.711 16.711 0 0 1-2.755.707c-13.42 2.844-31.16-6.293-40.553-11.98-3.981-2.382-6.496-4.187-6.56-4.228a1.368 1.368 0 0 0-2.012.266 1.455 1.455 0 0 0 .267 2.011c.195.126 1.257.903 2.881 1.95 8.231 5.489 31.967 19.593 49.034 14.228.214-.046.47-.157.683-.204l2.857-1.008a147.398 147.398 0 0 1 30.255-7.992c-.708 12.509-5.57 21.052-10.761 27.821-1.512 2.06-3.07 3.906-4.586 5.687-4.865 5.692-9.055 10.624-9.044 16.883a1.505 1.505 0 0 0 1.438 1.479Z"></path><path d="M410.674 1560.707c8.27-7.267 26.418-41.27 39.75-30.284 13.333 10.985 17.76 24.23 41.118 20.803 22.823-3.31 24.036-30.298 57.805-30.048.757.396 1.471.856 2.25 1.359a1.453 1.453 0 0 0 1.965-.48l.168-.26a1.49 1.49 0 0 0-.606-1.77l-1.43-.921c-11.184-35.715-12.415-76.6-41.829-94.733-24.88-16.038-43.512-7.818-62.045 15.086-5.042 6.68-9.436 10.928-13.428 13.412a102.447 102.447 0 0 1-3.49 25.244 19.6 19.6 0 0 1-.9 2.822c-5.61 18.545-16.234 30.179-27.839 29.779a10.374 10.374 0 0 1-3.393-.441c-5.056-1.144-10.364-4.75-15.371-11.104a39.725 39.725 0 0 0-7.663-7.513 20.339 20.339 0 0 0-3.057-2.247c-11.159-7.652-25.99-11.604-40.553-11.98-1.801-.057-3.603-.115-5.424-.001-11.958.291-23.45 2.998-32.441 7.96 16.34 12.74 42.875 15.225 49.005 19.268 9.4 6.243 13.862 10.59 24.786 39.149 11.03 28.535 34.287 24.124 42.622 16.9Z" style="mix-blend-mode:overlay" fill="url(#f)"></path><path fill="#35a7a5" fill-rule="evenodd" d="m283.428 1280.723 11.704 2.214-8.75 3.487c4 4.888 11.313 8.359 18.995 12.742 14.673 8.4 30.691 20.894 28.15 56.267a78.503 78.503 0 0 0 1.671 19.127l24.324 7.269-19.83 5.636c15.065 31.802 56.034 43.563 93.905 54.4 31.975 9.073 36.362 18.574 43.397 36.413l13.114-14.87-5.181 33.46a156.49 156.49 0 0 0 9.037 16.51c26.617 43.124 98.662 36.872 100.022-14.43.713-22.269-3.337-33.435-10.95-41.813l-41.009 5.57 23-19.463c-10.737-7.063-24.01-15.846-38.662-32.911a128.73 128.73 0 0 1-11.967-13.693l-7.916 11.444.772-21.93c-10.557-18.41-7.932-30.954-17.12-50.723a114.066 114.066 0 0 0-12.12-20.162c-6.994-7.229-13.6-11.452-19.911-13.98l-4.139 15.464-5.575-17.885c-23.908-3.29-44.344 14.048-71.2-16.46a159.49 159.49 0 0 0-19.886-19.431l-5.417 5.768-1.014-10.58c-27.313-18.761-52.01-16.186-66.703 12.022-1.233 4.129-1.465 7.591-.74 10.538Z"></path><path fill="#fff" d="M577.145 1533.445a1.926 1.926 0 0 0 .661-2.521c-38.046-71.612-75.241-97.927-108.056-121.15-22.75-16.095-44.236-31.301-64.02-59.413-25.098-35.67-69.793-62.394-70.24-62.661a1.926 1.926 0 0 0-1.966 3.312c.443.26 44.45 26.577 69.056 61.564 20.168 28.655 41.916 44.05 64.945 60.341 34.051 24.096 69.26 49.01 106.884 119.808a1.919 1.919 0 0 0 2.6.798c.046-.025.092-.05.136-.078Z"></path><path d="M305.377 1299.166c14.673 8.4 30.691 20.894 28.15 56.267a78.503 78.503 0 0 0 1.671 19.127l24.324 7.269-19.83 5.636c15.065 31.803 56.034 43.563 93.905 54.4 31.975 9.073 36.362 18.574 43.397 36.413l13.114-14.87-5.181 33.46a156.49 156.49 0 0 0 9.037 16.51c26.617 43.124 98.662 36.872 100.022-14.43.713-22.269-3.337-33.435-10.95-41.813l-41.009 5.57 23-19.463c-10.737-7.063-24.01-15.846-38.662-32.911a128.73 128.73 0 0 1-11.967-13.693l-7.916 11.444.772-21.93c-10.557-18.41-7.932-30.954-17.12-50.723-21.24 24.325-33.528 54.697-60.703 27.949-25.227-25.204-60.473-60.95-124.054-64.212Z" style="mix-blend-mode:overlay" fill="url(#g)"></path><path fill="#50fbf8" d="m1004.201 542.864-8.948 11.77v.187l14.216-1.882v6.402l-14.216-1.694v.188l9.04 11.301-5.934 3.39-5.651-13.185h-.184l-6.127 13.28-5.367-3.393 8.948-11.485v-.188l-13.94 1.786v-6.402l13.848 1.79v-.188l-8.856-11.49 5.75-3.296 5.836 13.088h.191l5.743-13.18ZM1066.707 542.864l-8.948 11.77v.187l14.215-1.882v6.402l-14.215-1.694v.188l9.04 11.301-5.935 3.39-5.65-13.185h-.185l-6.126 13.28-5.367-3.393 8.948-11.485v-.188l-13.94 1.786v-6.402l13.848 1.79v-.188l-8.856-11.49 5.75-3.296 5.835 13.088h.192l5.743-13.18ZM1129.213 542.864l-8.948 11.77v.187l14.215-1.882v6.402l-14.215-1.694v.188l9.04 11.301-5.935 3.39-5.65-13.185h-.185l-6.126 13.28-5.367-3.393 8.948-11.485v-.188l-13.94 1.786v-6.402l13.848 1.79v-.188l-8.856-11.49 5.75-3.296 5.835 13.088h.192l5.743-13.18ZM1191.718 542.864l-8.947 11.77v.187l14.215-1.882v6.402l-14.215-1.694v.188l9.04 11.301-5.935 3.39-5.651-13.185h-.184l-6.126 13.28-5.367-3.393 8.947-11.485v-.188l-13.939 1.786v-6.402l13.847 1.79v-.188l-8.855-11.49 5.75-3.296 5.835 13.088h.192l5.743-13.18ZM1254.224 542.864l-8.948 11.77v.187l14.216-1.882v6.402l-14.216-1.694v.188l9.04 11.301-5.934 3.39-5.651-13.185h-.184l-6.126 13.28-5.368-3.393 8.948-11.485v-.188l-13.94 1.786v-6.402l13.848 1.79v-.188l-8.856-11.49 5.75-3.296 5.836 13.088h.192l5.742-13.18Z"></path><path fill="#a787aa" d="M1150.482 431.083v-9.673a32.764 32.764 0 0 0-65.53 0v9.673a14.605 14.605 0 0 0-4.68 10.61v46.806a14.117 14.117 0 0 0 14.043 14.198h46.962a14.218 14.218 0 0 0 14.041-14.198v-46.807a14.173 14.173 0 0 0-4.836-10.609Zm-8.738-3.432c-.156 0-.312-.156-.467-.156h-46.962c-.157 0-.469.156-.625.156v-6.241a24.172 24.172 0 0 1 24.028-24.183 22.88 22.88 0 0 1 14.51 5.148 23.566 23.566 0 0 1 9.516 19.035Z"></path><path d="M1155.318 441.692V488.5a14.218 14.218 0 0 1-14.041 14.198h-46.962a14.117 14.117 0 0 1-14.043-14.198v-40.722c8.894-1.248 17.63.157 23.403 5.773 15.915 14.978 28.084-4.213 20.908-26.055h16.694c.155 0 .311.156.467.156v-6.241a23.566 23.566 0 0 0-9.517-19.035 38.476 38.476 0 0 1 12.013-.155 32.44 32.44 0 0 1 6.241 19.19v9.673a14.173 14.173 0 0 1 4.837 10.61Z" style="mix-blend-mode:overlay" fill="url(#h)"></path><path fill="#ffd0a9" d="M643.9 1595.785c-2.566 2.444-14.663 3.91-27.37 3.788-16.74 0-34.456-2.81-32.868-9.53 1.222-5.01 3.177-7.332 5.132-9.897 2.688-3.544 5.376-7.576 5.743-19.428h.122l16.74-.122 17.227-.244s-.488 1.466-.977 3.665c-.977 3.91-1.955 10.263-.122 14.173h.122a6.947 6.947 0 0 0 .977 1.589c4.888 5.254 21.017 10.508 15.273 16.006Z"></path><path fill="#544455" d="M677.5 1603.971c-5.62 3.422-33.111 4.766-57.182 3.788-19.183-.733-36.045-2.932-38-6.475-2.932-7.087-.122-14.418 5.987-21.994a.924.924 0 0 0 .489.856c2.321 1.832 13.074 1.466 22.97.488a117.284 117.284 0 0 0 15.763-2.444h.122a10.264 10.264 0 0 0 1.71-.488c8.676 15.884 53.395 13.318 48.141 26.27Z"></path><path fill="#c5fefd" d="M716.6 1262.22c-12.586 63.536-47.897 178.756-84.186 296.299-.244 2.444-2.077 4.276-4.765 5.498-4.154 1.955-10.386 2.444-16.617 1.832-6.232-.61-12.463-2.443-16.373-5.131h-.122c-2.811-1.955-4.521-4.399-4.155-7.087 1.71-115.587 4.399-227.753 19.428-289.823-12.219-69.646-45.576-157.986-24.071-225.31l92.617-27.859c9.286 34.334 18.572 68.668 25.78 102.026h.123c11.485 53.15 18.083 104.1 12.34 149.554Z"></path><path d="M627.649 1564.017c-.977 3.91-1.955 10.263-.122 14.173h.122a10.264 10.264 0 0 0 1.71-.488c8.676 15.884 53.395 13.318 48.141 26.27-5.62 3.42-33.111 4.765-57.182 3.787a62.368 62.368 0 0 1-3.788-8.186 79.698 79.698 0 0 1-4.765-18.939 73.652 73.652 0 0 1-.734-14.785 39.302 39.302 0 0 1 .367-5.253 90.78 90.78 0 0 1 2.933-17.228c27.491-107.645 80.52-267.342 89.806-430.703h.122c11.485 53.15 18.083 104.1 12.34 149.554-12.585 63.537-47.896 178.758-84.185 296.3-.244 2.444-2.077 4.276-4.765 5.498Z" opacity=".1"></path><path fill="#ffd0a9" d="M818.746 1595.907c-1.832 2.2-9.896 4.399-19.549 5.865-18.084 2.932-41.91 3.055-40.932-4.765.611-5.01 2.321-7.576 4.032-10.386 2.2-3.788 4.398-8.064 3.421-20.038l14.784-1.833 19.061-2.321a36.764 36.764 0 0 0-.61 3.787c-.489 4.033-.734 10.386 1.71 14.051a3.339 3.339 0 0 0 1.1 1.467c5.376 4.643 22.115 8.064 16.983 14.173Z"></path><path fill="#544455" d="M853.08 1600.306c-4.276 3.421-24.07 6.965-44.475 9.164-23.46 2.444-47.652 2.932-50.462-1.1-3.666-6.72-1.71-14.296 3.42-22.482q0 .55.734.733c3.055 1.71 14.785-.244 24.804-2.565 5.62-1.345 10.874-2.811 13.562-3.789a6.518 6.518 0 0 0 1.589-.733c10.508 14.785 54.494 7.21 50.829 20.772Z"></path><path fill="#c5fefd" d="M853.08 1256.232c-5.253 64.514-27.247 183.034-49.973 303.997 0 2.566-1.588 4.521-4.154 5.987-4.033 2.567-10.753 3.788-17.228 3.666-5.987 0-12.096-1.1-16.006-3.3-3.055-1.466-4.888-3.665-4.888-6.352-11.486-115.1-21.627-226.899-13.685-290.313-16.006-65.858-63.17-139.535-63.17-208.204l102.513-51.074c2.689 6.721 5.377 13.319 7.943 20.039 31.035 78.687 59.382 156.642 58.649 225.554Z"></path><path d="M853.08 1600.306c-4.276 3.421-24.07 6.965-44.475 9.164a56.343 56.343 0 0 1-9.408-7.698 63.12 63.12 0 0 1-12.096-17.716 81.18 81.18 0 0 1-5.376-14.174c-.49-1.589-.856-3.421-1.222-5.132-7.942-34.456-1.71-82.231 16.495-135.626 29.446-86.384 53.273-215.046-49.852-364.112a415.495 415.495 0 0 1 47.286-34.334c31.035 78.687 59.382 156.642 58.649 225.554-5.254 64.514-27.247 183.034-49.974 303.998 0 2.565-1.588 4.52-4.154 5.986-.489 4.033-.733 10.386 1.71 14.051a6.518 6.518 0 0 0 1.589-.733c10.508 14.785 54.494 7.21 50.829 20.772Z" opacity=".1"></path><path fill="#ffd0a9" d="M932.966 723.86c8.441 7.732 31.512-10.381 38.866-26.639s-10.584-3.95-10.584-3.95-6.459.127.395-5.499c8.041-6.601-19.433 2.716-27.114 11.757Z"></path><path fill="#544455" d="M621.14 713.55c44.735 13.394 110.033 33.695 172.353 73.677l139.953-87.387c4.892-3.439 23.089 22.448 18.197 25.887-43.62 48.566-102.083 118.018-131.915 132.451-43.604 19.677-125.378-10.86-166.388-41.25Z"></path><path d="M1179.668 851.754a217.65 217.65 0 0 0 7.495-34.878c.322-2.698.568-5.397.793-8.029a154.644 154.644 0 0 0-1.334-38.893c-.513-2.962-1.047-5.857-1.755-8.687a107.91 107.91 0 0 0-5.674-17.308 70.766 70.766 0 0 0-4.183-8.753 78.975 78.975 0 0 0-16.181-20.861c.02-.066.02-.066-.056-.066a62.594 62.594 0 0 0-9.544-7.305s.02-.066-.056-.066c-11.702-7.502-25.85-11.648-42.006-11.648a11.217 11.217 0 0 0-1.475.066h-.077a103.625 103.625 0 0 0-24.573 3.356h-.077c-15.804 3.949-31.624 11.32-47.02 21.454a175.707 175.707 0 0 0-13.317 9.608 234.546 234.546 0 0 0-33.602 31.983c-1.798 2.04-3.616 4.146-5.281 6.252-3.72 4.475-7.274 9.148-10.737 14.018-1.491 2.04-2.927 4.146-4.362 6.252a286.66 286.66 0 0 0-15.723 26.323c-1.373 2.632-2.67 5.265-3.967 7.898l-.02.065a261.353 261.353 0 0 0-13.419 33.76c-1.193 3.751-2.289 7.437-3.23 11.122-.664 2.567-1.328 5.133-1.893 7.634a195.931 195.931 0 0 0-5.09 37.906 84.738 84.738 0 0 0-.046 6.647 131.495 131.495 0 0 0 4.88 35.932 47.866 47.866 0 0 0 1.916 6.252c5.278 15.662 13.767 28.692 24.939 38.103a59.26 59.26 0 0 0 6.824 5.265c11.075 7.305 24.34 11.582 39.506 12.043a29.023 29.023 0 0 0 3.403.132c1.455 0 2.91 0 4.33-.132 55.137-2.435 116.24-51.792 151.295-118.193a114.649 114.649 0 0 0 3.179-6.384 244.498 244.498 0 0 0 13.92-33.892c.327-.79.6-1.645.85-2.435.482-1.513.963-3.027 1.368-4.54Zm-161.407-112.402c-.028.33-.035.593-.063.921-.189 9.74-4.787 16.256-13.755 19.414a35.405 35.405 0 0 1-8.932 1.843 235.3 235.3 0 0 1 22.75-22.178Zm-28.56 28.89a50.7 50.7 0 0 0 16.052-2.566c7.423-2.632 19.978-9.608 20.395-27.048a19.958 19.958 0 0 1 1.348-6.646l.021-.066a173.062 173.062 0 0 1 26.68-16.716c-13.192 10.661-21.095 22.507-22.057 33.958-1.412 16.715-9.008 28.56-21.931 34.286-10.152 4.476-22.695 4.673-33.147 1.185 4.02-5.66 8.207-11.121 12.639-16.387Zm-16.828 22.573a56.225 56.225 0 0 0 39.44-1.71c9.359-4.147 25.446-15.006 27.728-41.198 1.524-17.307 21.046-32.707 42.388-43.236a93.372 93.372 0 0 1 22.645-2.83 71.853 71.853 0 0 1 28.695 5.594 161.285 161.285 0 0 0-38.004 7.305c-29.548 9.608-47.923 26.455-50.527 46.198-3.528 26.258-13.768 45.21-29.018 53.437-11.072 5.923-24.283 6.055-37.197.197-5.56-2.5-11.991-3.224-19.238-2.106a272.386 272.386 0 0 1 13.088-21.65Zm-31.7 65.48a255.55 255.55 0 0 1 14.994-36.787c6.934-1.58 12.878-1.25 17.756.987 14.974 6.844 31.463 6.515 45.238-.921 12.819-6.845 29.084-22.836 33.992-59.69 2.912-22.638 28.648-34.22 43.672-39.09a155.574 155.574 0 0 1 48.243-7.24 70.196 70.196 0 0 1 19.092 19.415c-21.603-3.817-44.469-3.422-63.12 1.777-24.96 6.976-40.478 21.585-43.667 40.999-6.93 41.525-17.361 65.414-32.863 75.154-8.433 5.33-18.86 6.58-31.938 3.883-14.26-2.83-32.91.197-53.548 8.753.698-2.435 1.375-4.805 2.15-7.24Zm-4.11 14.61c20.172-9.016 38.411-12.438 51.773-9.674 15.534 3.16 28.426 1.382 39.332-5.462 18.19-11.451 29.645-36.393 37.057-80.88 3.413-20.598 21.656-29.811 36.45-33.957 19.752-5.528 44.72-5.068 67.296.263a106.05 106.05 0 0 1 6.808 17.11c-23.452-6.91-47.882-8.818-67.076-4.08-22.105 5.462-36.315 19.085-40.018 38.433l-1.93 10.398c-8.623 45.408-14.319 75.351-31.514 87.526-7.222 5.133-16.774 7.239-29.852 6.713-21.946-1.054-49.068 3.816-74.12 12.767a193.036 193.036 0 0 1 5.794-39.157Zm-5.951 45.672c24.278-8.687 50.83-13.689 71.822-12.767 15.236.724 27.183-2.172 36.452-8.687 20.357-14.412 25.906-43.895 35.18-92.791l2.006-10.398c3.123-16.32 13.976-26.85 32.418-31.391 19.445-4.804 44.884-1.974 68.78 6.186a143.687 143.687 0 0 1 2.63 39.156c-19.374-6.975-41.02-9.213-59.44-5.462-23.252 4.739-38.297 18.098-42.447 37.643-8.152 38.63-15.239 66.928-31.842 79.169-7.014 5.199-15.772 7.7-27.647 7.963-27.48.46-61.164 10.793-83.957 25.402a134.145 134.145 0 0 1-3.956-34.023Zm5.76 40.143c21.234-14.28 53.706-24.415 80.289-24.941 13.886-.33 24.963-3.62 33.85-10.135 19.32-14.28 26.56-42.579 35.347-84.17 4.269-20.4 21.147-27.97 34.486-30.667 18.093-3.685 39.836-.79 58.923 6.844a205.662 205.662 0 0 1-7.037 35.603 86.714 86.714 0 0 0-37.689-2.83c-24.121 3.62-41.325 17.505-45.996 37.248-11.529 48.04-26.056 66.27-55.738 69.56-19.47 2.238-48.412 10.662-65.993 27.18a50.336 50.336 0 0 0-9.218 11.648c-9.536-9.016-16.655-21.06-21.224-35.34Zm74.354 53.898a30.464 30.464 0 0 1 1.84-2.896c8.208-11.121 26.268-17.11 36.217-19.742 31.308-8.16 50.82-27.377 59.655-58.768 5.821-20.467 25.45-29.22 40.527-30.404a28.578 28.578 0 0 1 3.335-.132c-33.39 62.849-90.377 109.375-141.574 111.942Zm159.418-154.323a250.1 250.1 0 0 1-14.505 35.735q-2.642 0-5.346.197c-19.895 1.646-42.965 13.755-49.498 37.183-8.068 28.495-24.674 45.079-52.397 52.318-19.779 5.133-34.807 13.622-42.318 23.757a29.277 29.277 0 0 0-3.087 5.133c-15.606-.527-28.966-5.462-39.839-13.886a35.594 35.594 0 0 1 9.037-12.767c14.538-13.688 40.396-22.045 59.539-24.217 39.609-4.41 54.081-32.576 64.618-76.537 5.258-22.309 25.776-28.561 37.52-30.338a77.813 77.813 0 0 1 36.318 3.29Z" opacity=".03"></path><path fill="#35a7a5" d="M1095.936 827.1a217.65 217.65 0 0 0 7.495-34.88c.322-2.697.569-5.396.793-8.028a154.644 154.644 0 0 0-1.334-38.893c-.513-2.962-1.047-5.857-1.755-8.687a107.906 107.906 0 0 0-5.674-17.308 70.775 70.775 0 0 0-4.183-8.752 78.975 78.975 0 0 0-16.181-20.862c.02-.066.02-.066-.056-.066a62.594 62.594 0 0 0-9.544-7.305s.02-.065-.056-.065c-11.702-7.503-25.85-11.649-42.006-11.649a11.217 11.217 0 0 0-1.475.066h-.077a103.625 103.625 0 0 0-24.573 3.356h-.077c-15.803 3.949-31.624 11.32-47.02 21.454a175.709 175.709 0 0 0-13.317 9.608 234.546 234.546 0 0 0-33.602 31.983c-1.797 2.04-3.616 4.146-5.281 6.252-3.72 4.475-7.274 9.148-10.737 14.018-1.491 2.04-2.927 4.146-4.362 6.252a286.66 286.66 0 0 0-15.723 26.323c-1.373 2.633-2.67 5.265-3.967 7.898l-.02.065a261.353 261.353 0 0 0-13.419 33.76c-1.193 3.751-2.289 7.437-3.23 11.122-.664 2.567-1.327 5.133-1.893 7.634a195.93 195.93 0 0 0-5.09 37.906 84.739 84.739 0 0 0-.046 6.647 131.495 131.495 0 0 0 4.88 35.932 47.872 47.872 0 0 0 1.916 6.252c5.278 15.662 13.767 28.693 24.939 38.103a59.252 59.252 0 0 0 6.824 5.265c11.076 7.305 24.34 11.582 39.506 12.043a29.045 29.045 0 0 0 3.404.132c1.454 0 2.91 0 4.33-.132 55.136-2.435 116.24-51.792 151.294-118.193a114.649 114.649 0 0 0 3.18-6.384 244.488 244.488 0 0 0 13.919-33.892c.327-.79.6-1.645.85-2.435.482-1.513.964-3.027 1.368-4.54ZM934.53 714.697c-.028.33-.035.593-.063.922-.189 9.74-4.787 16.255-13.755 19.413a35.404 35.404 0 0 1-8.932 1.843 235.324 235.324 0 0 1 22.75-22.178Zm-28.56 28.89a50.702 50.702 0 0 0 16.052-2.566c7.423-2.632 19.978-9.608 20.395-27.048a19.96 19.96 0 0 1 1.348-6.646l.021-.066a173.05 173.05 0 0 1 26.68-16.716c-13.192 10.661-21.095 22.507-22.057 33.958-1.412 16.715-9.008 28.561-21.931 34.286-10.152 4.476-22.695 4.673-33.147 1.185 4.02-5.66 8.208-11.121 12.639-16.387ZM889.14 766.16a56.225 56.225 0 0 0 39.44-1.71c9.359-4.147 25.446-15.005 27.728-41.197 1.524-17.308 21.046-32.708 42.388-43.237a93.372 93.372 0 0 1 22.645-2.83 71.853 71.853 0 0 1 28.695 5.594 161.285 161.285 0 0 0-38.004 7.305c-29.548 9.608-47.923 26.455-50.527 46.198-3.528 26.258-13.768 45.21-29.018 53.437-11.072 5.923-24.283 6.055-37.197.198-5.56-2.501-11.991-3.225-19.238-2.106a272.37 272.37 0 0 1 13.088-21.652Zm-31.7 65.48a255.561 255.561 0 0 1 14.994-36.787c6.934-1.58 12.878-1.25 17.756.987 14.974 6.844 31.464 6.516 45.238-.92 12.82-6.845 29.084-22.837 33.992-59.69 2.913-22.638 28.648-34.22 43.672-39.09a155.578 155.578 0 0 1 48.243-7.24 70.196 70.196 0 0 1 19.092 19.414c-21.603-3.817-44.469-3.422-63.12 1.777-24.96 6.976-40.478 21.585-43.667 40.999-6.93 41.526-17.36 65.414-32.863 75.154-8.433 5.33-18.86 6.58-31.938 3.883-14.26-2.83-32.91.198-53.547 8.753.697-2.435 1.374-4.805 2.149-7.24Zm-4.11 14.61c20.172-9.016 38.411-12.438 51.773-9.674 15.534 3.16 28.426 1.382 39.332-5.462 18.19-11.451 29.645-36.393 37.057-80.88 3.413-20.598 21.656-29.811 36.45-33.957 19.752-5.528 44.72-5.068 67.296.263a106.06 106.06 0 0 1 6.808 17.11c-23.452-6.91-47.882-8.818-67.076-4.08-22.105 5.462-36.314 19.085-40.018 38.433l-1.93 10.398c-8.623 45.408-14.319 75.352-31.514 87.526-7.222 5.133-16.773 7.239-29.852 6.713-21.946-1.053-49.068 3.816-74.12 12.767a193.036 193.036 0 0 1 5.794-39.157Zm-5.951 45.672c24.278-8.687 50.83-13.689 71.822-12.767 15.236.724 27.183-2.172 36.452-8.687 20.357-14.412 25.906-43.895 35.18-92.79l2.006-10.399c3.123-16.32 13.976-26.85 32.418-31.391 19.445-4.804 44.884-1.974 68.78 6.186a143.69 143.69 0 0 1 2.63 39.157c-19.374-6.976-41.02-9.214-59.44-5.463-23.252 4.739-38.297 18.098-42.447 37.643-8.152 38.63-15.238 66.928-31.842 79.169-7.013 5.199-15.772 7.7-27.646 7.963-27.481.46-61.165 10.793-83.958 25.402a134.145 134.145 0 0 1-3.955-34.023Zm5.76 40.143c21.234-14.28 53.706-24.415 80.289-24.941 13.886-.33 24.963-3.62 33.85-10.135 19.32-14.28 26.56-42.579 35.347-84.17 4.269-20.4 21.147-27.969 34.486-30.667 18.093-3.685 39.836-.79 58.923 6.844a205.67 205.67 0 0 1-7.037 35.603 86.715 86.715 0 0 0-37.689-2.83c-24.121 3.62-41.325 17.506-45.996 37.248-11.529 48.041-26.056 66.27-55.738 69.56-19.47 2.238-48.412 10.662-65.993 27.18a50.33 50.33 0 0 0-9.218 11.648c-9.536-9.016-16.655-21.06-21.224-35.34Zm74.354 53.898a30.464 30.464 0 0 1 1.84-2.895c8.208-11.122 26.268-17.11 36.217-19.743 31.308-8.16 50.82-27.377 59.655-58.768 5.821-20.466 25.45-29.22 40.527-30.404a28.578 28.578 0 0 1 3.335-.131c-33.39 62.848-90.377 109.375-141.574 111.941Zm159.418-154.323a250.118 250.118 0 0 1-14.505 35.735q-2.642 0-5.346.197c-19.895 1.646-42.965 13.755-49.498 37.183-8.068 28.495-24.674 45.079-52.397 52.318-19.779 5.133-34.807 13.622-42.318 23.757a29.29 29.29 0 0 0-3.087 5.133c-15.605-.526-28.966-5.462-39.839-13.885a35.593 35.593 0 0 1 9.037-12.767c14.538-13.689 40.396-22.046 59.54-24.218 39.608-4.41 54.08-32.576 64.617-76.537 5.258-22.309 25.776-28.56 37.52-30.337a77.811 77.811 0 0 1 36.318 3.29Z"></path><path fill="#544455" d="M747.146 1065.012c-55.106 15.273-130.983 18.205-166.416-16.006-25.537-24.682-4.521-281.271 24.681-327.457 24.681-39.222 150.899-28.713 182.912 2.322a.12.12 0 0 1 .122.122c5.742 5.62 8.43 11.852 6.842 18.694-4.032 16.74-6.72 52.662-7.21 93.838a937.099 937.099 0 0 0 0 26.148c.734 62.193 6.843 129.028 22.239 157.009 8.308 15.028-21.505 33.722-63.17 45.33Z"></path><path fill="#ffd0a9" d="M1088.74 850.265c11.424.736 23.648-23.474 19.192-40.752s-10.723 3.553-10.723 3.553-4.954 4.147-3.138-4.532c2.13-10.184-12.903 5.83-13.223 17.69Z"></path><path fill="#544455" d="M1087.188 856.32c-56.939 31.89-134.648 78.809-167.516 82.841-41.665 3.91-98.604-37.877-131.594-76.488a174.608 174.608 0 0 1-12.707-16.25l2.077-19.428 10.875-103.124a.12.12 0 0 1 .122.122c38 27.125 83.086 81.742 129.272 139.535l160.551-37.633c5.743-1.588 14.662 28.714 8.92 30.424Z"></path><path fill="#ffc192" d="M662.088 697.213c19.627-19.49 14.095-50.446 15.753-48.575l28.72 1.145c-5.195 16.078-4.585 36.229 8.263 48.297-9.66 6.162-43.808 5.064-52.736-.867Z"></path><path fill="#ffd0a9" d="m675.53 587.936-16.548 67.975c21.552 13.097 43.528 28.426 59.693 13.124 8.43-9.032 14.354-45.658 4.517-73.621-.357-1.014-47.663-7.478-47.663-7.478Z"></path><path fill="#17234c" d="M709.659 620.858C727.6 641.023 762.58 623.461 761 600.79s-27.313-25.16-36.688-16.12c0 0-6.784-20.998-23.68-18.89s-18.294 18.216-18.294 18.216-26.792-2.685-30.18 14.567 9.83 18.566 9.83 18.566-18.079 18.974-5.104 42.742 39.055 10.38 39.055 10.38 3.567-13.415-2.192-24.37-.03-19.864 4.751-15.59 6.186 18.095 6.186 18.095l4.661-2.001Z"></path><path d="M1087.188 856.32c-56.939 31.89-134.648 78.809-167.516 82.841-41.665 3.91-98.604-37.877-131.594-76.488.733 62.193 6.842 129.028 22.238 157.009 8.308 15.028-21.505 33.722-63.17 45.33 29.08-30.18 14.296-64.88 21.383-133.67 8.553-81.987-4.277-114.977-5.499-117.91.855.734 6.11 5.988 14.418 13.563 3.055 2.932 6.72 6.11 10.63 9.53 18.817 16.496 46.186 38.733 75.51 55.961 53.518 31.402 131.106 13.074 223.6-36.167Z" opacity=".1"></path></g></g></g></svg>